<?xml version="1.0" encoding="utf-8"?>
<!-- Generator: Adobe Illustrator 24.0.0, SVG Export Plug-In . SVG Version: 6.00 Build 0)  -->
<svg version="1.1" id="Layer_1" xmlns="http://www.w3.org/2000/svg" xmlns:xlink="http://www.w3.org/1999/xlink" x="0px" y="0px"
	 viewBox="0 0 284.84 82.94" style="enable-background:new 0 0 284.84 82.94;" xml:space="preserve">
<style type="text/css">
	.st0{clip-path:url(#SVGID_2_);}
	.st1{fill-rule:evenodd;clip-rule:evenodd;fill:#FFFFFF;}
	.st2{fill:none;stroke:#D82A27;stroke-width:0.256;stroke-miterlimit:10;}
	.st3{fill-rule:evenodd;clip-rule:evenodd;fill:#FF0000;}
	.st4{fill:#FFFFFF;}
</style>
<g>
	<defs>
		<rect id="SVGID_1_" x="5" y="5" width="275.29" height="74.22"/>
	</defs>
	<clipPath id="SVGID_2_">
		<use xlink:href="#SVGID_1_"  style="overflow:visible;"/>
	</clipPath>
	<g class="st0">
		<rect x="76.99" y="9.52" class="st1" width="199.81" height="39.41"/>
		<rect x="76.99" y="9.52" class="st2" width="199.81" height="39.41"/>
		<path class="st1" d="M70.37,55.32V5.38h209.64v49.94H70.37z M268.15,45.49V32.77L261.6,15.7h-9.35l7.48,18.98v10.81H268.15z
			 M102.15,45.49L91.55,30.4l0.02,15.09H102.15z M88.23,45.49V15.7h-8.18v29.79H88.23z M239.13,45.48l-1.92-10.55h3.92l1.97,10.51
			h8.44l-5.4-29.71l-8.59-0.07l3.61,18.22h-4.05l-1.86-9.67l-4.89,21.23L239.13,45.48z M223.63,45.44l1.26-5.57l-5.53-24.22h-8.21
			l6.49,29.78H223.63z M211.65,45.44l1.25-5.43l-5.33-24.36h-8.35l6.62,29.78H211.65z M189.31,45.44c1.62-0.6,2.8-1.25,3.5-1.93
			c1.12-1.11,1.7-2.72,1.7-4.8c0-1.85-1.08-4.42-3.21-7.62c-0.12-0.18-1.51-2.06-3.82-5.17l-2.33-3.14
			c-3.11-4.19-3.47-5.71-3.47-6.49c0-0.15,0.04-0.33,0.22-0.74h-1.45c-1.51,0.67-2.6,1.38-3.22,2.12c-0.86,1.01-1.29,2.47-1.29,4.31
			c0,1.58,0.43,3.1,1.29,4.52c0.11,0.19,0.58,0.92,1.72,2.57c1.67,2.56,3.51,5.24,5.47,7.98l1.73,2.47
			c0.76,1.09,1.21,1.72,1.33,1.92c0.7,1.14,1.03,2.05,1.03,2.81c0,0.37-0.09,0.77-0.26,1.2c0,0,0,0.01,0,0.01H189.31z M184.96,45.44
			l-8.41-12.81v12.81H184.96z M162.15,45.44c2.25,0,4.09-0.96,5.64-2.94c1.57-2.01,2.36-4.4,2.36-7.1v-3.62h-8.34v13.67H162.15z
			 M156.91,15.66c-0.45,0-1.29,0.2-2.68,1.15c-1.55,1.06-2.82,2.55-3.8,4.42c-1.26,2.44-1.9,5.46-1.9,8.98
			c0,3.6,0.72,6.75,2.14,9.37c1.04,1.91,2.44,3.47,4.14,4.62c1.5,1.02,2.35,1.24,2.8,1.24h0.77V15.66H156.91z M142.87,45.44v-2.99
			L131.91,15.7h-8.66v2.48l10.98,27.26H142.87z M129.96,45.44l-6.71-18.79v18.79H129.96z M117.08,45.44V15.58H109v29.86H117.08z
			 M143.04,34.38V15.7h-7.07L143.04,34.38z M226.7,32.42l3.92-16.75h-7.68L226.7,32.42z M91.54,27.94l10.12-12.24H91.53L91.54,27.94
			z M269.72,27.12l4.6-11.41l-9.09,0.03L269.72,27.12z M193.25,26.71V15.54h-7.94L193.25,26.71z M169.04,24.69l-0.03-9.03h-7.61
			L169.04,24.69z"/>
		<path class="st3" d="M268.84,46.19h-9.81V34.81L251.22,15h10.86l6.76,17.64 M275.35,15l-5.64,14l-5.52-14.01L275.35,15z
			 M252.38,46.14h-9.86l-1.97-10.51h-2.51l1.92,10.56l-10.47-0.04l5.82-25.3l2.37,12.35h2.63l-3.61-18.23l10.01,0.02L252.38,46.14z
			 M213.62,40.02l-1.41,6.12h-6.93l-6.93-31.18h9.78L213.62,40.02z M225.61,39.88l-1.42,6.26h-7.11l-6.8-31.18h9.63L225.61,39.88z
			 M231.32,15.7l-4.64,19.83l-4.62-20.57h9.26V15.7z M186.25,46.14h-10.4V30.3L186.25,46.14z M195.2,38.71
			c0,2.28-0.64,4.06-1.91,5.3c-0.79,0.77-2.07,1.48-3.86,2.13h-2.29c0.14-0.31,0.28-0.63,0.43-0.97c0.13-0.33,0.21-0.65,0.21-0.94
			c0-0.62-0.31-1.44-0.91-2.42c-0.21-0.31-1.23-1.76-3.05-4.37c-2.04-2.85-3.86-5.51-5.48-7.99c-1.02-1.47-1.6-2.35-1.74-2.6
			c-0.92-1.53-1.39-3.16-1.39-4.88c0-2.03,0.49-3.61,1.46-4.76c0.7-0.83,1.89-1.63,3.61-2.37h2.63c-0.07,0.2-0.17,0.48-0.32,0.82
			c-0.15,0.34-0.23,0.54-0.23,0.62c0,1.07,1.12,3.09,3.33,6.08c3.95,5.33,6.02,8.1,6.18,8.34C194.09,34.03,195.2,36.71,195.2,38.71z
			 M193.95,28.89l-9.99-14.05h9.99V28.89z M159.07,46.14h-1.46c-0.78,0-1.85-0.44-3.19-1.36c-1.8-1.22-3.26-2.84-4.37-4.86
			c-1.48-2.73-2.22-5.96-2.22-9.7c0-3.65,0.66-6.76,1.98-9.3c1.02-1.96,2.36-3.54,4.03-4.68c1.24-0.85,2.27-1.27,3.08-1.27h2.16
			V46.14z M170.86,35.4c0,2.88-0.84,5.39-2.51,7.53c-1.68,2.14-3.75,3.21-6.19,3.21h-1.04V31.08h9.74V35.4z M169.75,26.6
			l-9.85-11.64h9.81L169.75,26.6z M130.95,46.14h-8.4V22.63L130.95,46.14z M143.57,46.14h-9.82l-11.2-27.83V15h9.82l11.2,27.32
			V46.14z M143.74,38.19L134.97,15h8.77V38.19z M117.78,46.14h-9.47V14.89h9.47V46.14z M88.92,46.19h-9.57V15h9.57V46.19z
			 M103.49,46.19H90.87L90.83,15h12.31L91.49,29.1L103.49,46.19z M71.06,6.08h208.25v48.54H71.06V6.08z"/>
		<g>
			<rect x="6.67" y="6.92" class="st4" width="57.13" height="46.84"/>
			<path d="M64.68,54.63H5.8V6.04h58.88V54.63z M7.55,52.88h55.38V7.79H7.55V52.88z"/>
		</g>
		<path class="st3" d="M13.21,46.59l2.16-3.7h3.07l-2.2,3.63 M13.21,39.18l2.16,3.71h3.07l-2.2-3.63l2.1-3.32h-3.38L13.21,39.18z
			 M13.39,32.7l2.36-3.7h3.07l-2.4,3.63l1.92,3.32h-3.38L13.39,32.7z M13.59,25.28L15.75,29h3.07l-2.2-3.64l2.1-3.32h-3.39
			L13.59,25.28z M13.77,18.8l2.37-3.71h3.07l-2.4,3.65l1.92,3.31h-3.39L13.77,18.8z"/>
		<path class="st3" d="M18.96,46.59l2.16-3.7h3.06L22,46.52 M18.96,39.18l2.16,3.71h3.06L22,39.26l2.1-3.32h-3.39L18.96,39.18z
			 M19.14,32.7l2.37-3.7h3.07l-2.4,3.63l1.92,3.32h-3.39L19.14,32.7z M19.34,25.28L21.51,29h3.07l-2.2-3.64l2.1-3.32h-3.39
			L19.34,25.28z M19.53,18.8l2.37-3.71h3.06l-2.4,3.65l1.92,3.31h-3.39L19.53,18.8z"/>
		<path class="st3" d="M24.71,46.59l2.16-3.7h3.07l-2.2,3.63 M24.71,39.18l2.16,3.71h3.07l-2.2-3.63l2.1-3.32h-3.38L24.71,39.18z
			 M24.89,32.7l2.37-3.7h3.07l-2.4,3.63l1.92,3.32h-3.38L24.89,32.7z M25.09,25.28L27.26,29h3.07l-2.21-3.64l2.11-3.32h-3.39
			L25.09,25.28z M25.26,18.8l2.37-3.71h3.07l-2.4,3.65l1.92,3.31h-3.39L25.26,18.8z"/>
		<path class="st3" d="M42.75,17.58h9.55L44.35,31.3l8.62,13.08l-10.43,0l-7.9-13.19 M41.23,15.03h15.65l-9.22,16.34l9.78,15.1
			l-16.48,0.02l-9.32-15.26L41.23,15.03z"/>
		<g>
			<polygon points="131.39,70.98 140.19,70.98 140.19,67.68 131.39,67.68 131.39,64.48 140.84,64.48 140.84,61.16 127.37,61.16 
				127.37,78.33 141.18,78.33 141.18,75.02 131.39,75.02 			"/>
			<path d="M156.87,68.66c-0.86-0.43-2.16-0.84-3.87-1.22c-1.68-0.38-2.74-0.74-3.16-1.07c-0.29-0.23-0.43-0.5-0.43-0.82
				c0-0.36,0.15-0.63,0.46-0.84c0.54-0.37,1.31-0.56,2.28-0.56c0.94,0,1.64,0.17,2.09,0.51c0.45,0.34,0.74,0.91,0.88,1.7l0.04,0.21
				l4-0.17l-0.01-0.24c-0.06-1.6-0.68-2.9-1.84-3.85c-1.15-0.96-2.88-1.44-5.13-1.44c-1.35,0-2.54,0.2-3.53,0.6
				c-0.99,0.41-1.77,1.01-2.3,1.78c-0.53,0.78-0.8,1.62-0.8,2.52c0,1.4,0.58,2.59,1.71,3.54c0.79,0.68,2.13,1.23,4.09,1.71
				c1.5,0.35,2.42,0.59,2.81,0.72c0.59,0.21,0.97,0.42,1.17,0.66c0.2,0.22,0.31,0.51,0.31,0.84c0,0.53-0.26,1.01-0.78,1.41
				c-0.54,0.43-1.35,0.64-2.43,0.64c-1.01,0-1.82-0.24-2.41-0.73c-0.58-0.46-0.97-1.23-1.17-2.28l-0.04-0.22l-3.92,0.36l0.03,0.25
				c0.24,1.92,0.98,3.41,2.21,4.43c1.22,1.01,3,1.52,5.26,1.52c1.54,0,2.86-0.21,3.9-0.63c1.07-0.42,1.91-1.08,2.48-1.95
				c0.58-0.88,0.88-1.83,0.88-2.82c0-1.09-0.25-2.03-0.74-2.8C158.42,69.69,157.73,69.09,156.87,68.66z"/>
			<path d="M119.61,71.95c-0.39-0.4-0.86-0.76-1.38-1.1c1.27-0.27,2.26-0.78,2.95-1.51c0.81-0.86,1.23-1.96,1.23-3.27
				c0-1.02-0.27-1.94-0.81-2.77c-0.55-0.81-1.28-1.38-2.16-1.68c-0.89-0.31-2.25-0.46-4.17-0.46h-7.69v17.18h4.03v-6.97h0.47
				c0.76,0,1.35,0.06,1.69,0.16c0.34,0.12,0.67,0.34,0.97,0.64c0.32,0.33,0.94,1.14,1.84,2.42l2.63,3.74h4.82l-2.39-3.64
				C120.79,73.37,120.12,72.47,119.61,71.95z M111.61,64.48h2.52c1.44,0,2.27,0.02,2.54,0.05c0.53,0.09,0.92,0.28,1.19,0.58
				c0.27,0.3,0.41,0.7,0.41,1.19c0,0.44-0.11,0.82-0.32,1.11c-0.2,0.28-0.49,0.49-0.87,0.62c-0.38,0.12-1.43,0.18-3.11,0.18h-2.37
				V64.48z"/>
			<polygon points="175.16,61.3 171.14,61.3 171.14,78.33 183.96,78.33 183.96,75.02 175.16,75.02 			"/>
			<polygon points="95.84,67.54 91.84,61.16 87.1,61.16 93.73,71.14 93.73,78.33 97.75,78.33 97.75,71.16 104.41,61.16 99.73,61.16 
							"/>
			<polygon points="70.82,64.48 76.02,64.48 76.02,78.33 80.05,78.33 80.05,64.48 85.23,64.48 85.23,61.16 70.82,61.16 			"/>
			<polygon points="227.19,64.48 232.38,64.48 232.38,78.33 236.42,78.33 236.42,64.48 241.6,64.48 241.6,61.16 227.19,61.16 			"/>
			<polygon points="249.53,70.98 258.33,70.98 258.33,67.68 249.53,67.68 249.53,64.48 258.99,64.48 258.99,61.16 245.51,61.16 
				245.51,78.33 259.32,78.33 259.32,75.02 249.53,75.02 			"/>
			<rect x="188" y="61.16" width="4.04" height="17.18"/>
			<path d="M278.53,65.88c-0.4-1.11-0.98-2.05-1.73-2.79c-0.77-0.77-1.7-1.31-2.75-1.6c-0.77-0.22-1.88-0.33-3.4-0.33h-6.71v17.18
				h6.9c1.34,0,2.39-0.12,3.2-0.36c1.08-0.33,1.95-0.8,2.58-1.39c0.83-0.77,1.48-1.79,1.94-3.05c0.37-1.02,0.55-2.24,0.55-3.63
				C279.11,68.32,278.92,66.97,278.53,65.88z M267.96,64.48c0.61,0,2.39,0,2.4,0c0.93,0,1.35,0.06,1.81,0.15
				c0.6,0.13,1.12,0.36,1.52,0.72c0.4,0.37,0.72,0.88,0.94,1.52c0.23,0.65,0.34,1.63,0.34,2.89c0,1.27-0.12,2.27-0.34,2.97
				c-0.22,0.7-0.51,1.21-0.86,1.5c-0.34,0.3-0.78,0.51-1.33,0.65c-0.4,0.1-1.08,0.14-2.08,0.14h-2.4V64.48z"/>
			<rect x="219.41" y="61.16" width="4.03" height="17.18"/>
			<polygon points="205.69,71.86 202.71,61.16 196.97,61.16 196.97,78.33 200.75,78.33 200.76,66.85 203.78,78.33 207.57,78.33 
				210.61,66.84 210.61,78.33 214.39,78.33 214.39,61.16 208.64,61.16 			"/>
			<path d="M9.55,61.45c-1.6,0-2.91,1.42-2.91,3.17v10.7c0,1.75,1.3,3.18,2.91,3.18c1.6,0,2.91-1.43,2.91-3.18v-10.7
				C12.46,62.87,11.15,61.45,9.55,61.45z"/>
			<path d="M59.47,61.45c-1.6,0-2.9,1.42-2.9,3.17v10.7c0,1.75,1.3,3.18,2.9,3.18c1.61,0,2.91-1.43,2.91-3.18v-10.7
				C62.38,62.87,61.08,61.45,59.47,61.45z"/>
			<path d="M51.68,61.45c-1.6,0-2.91,1.42-2.91,3.17v3.15h-9.09c-0.62-2.79-2.87-4.87-5.56-4.87c-2.68,0-4.94,2.08-5.55,4.87h-8.31
				v-3.15c0-1.75-1.3-3.17-2.91-3.17c-1.6,0-2.91,1.42-2.91,3.17v10.7c0,1.75,1.3,3.18,2.91,3.18c1.6,0,2.91-1.43,2.91-3.18v-4.68
				h8.27c0.55,2.89,2.85,5.06,5.6,5.06c2.75,0,5.05-2.17,5.6-5.06h9.04v4.68c0,1.75,1.3,3.18,2.91,3.18c1.6,0,2.91-1.43,2.91-3.18
				v-10.7C54.59,62.87,53.28,61.45,51.68,61.45z"/>
		</g>
	</g>
</g>
</svg>
